<svg width="14" height="12" viewBox="0 0 14 12" fill="none" xmlns="http://www.w3.org/2000/svg">
<path fill-rule="evenodd" clip-rule="evenodd" d="M7.30309 0.46967C7.59598 0.176777 8.07085 0.176777 8.36375 0.46967L13.3637 5.46967C13.5044 5.61032 13.5834 5.80109 13.5834 6C13.5834 6.19891 13.5044 6.38968 13.3637 6.53033L8.36375 11.5303C8.07085 11.8232 7.59598 11.8232 7.30309 11.5303C7.01019 11.2374 7.01019 10.7626 7.30309 10.4697L11.0228 6.75H1.16675C0.752534 6.75 0.416748 6.41421 0.416748 6C0.416748 5.58579 0.752534 5.25 1.16675 5.25H11.0228L7.30309 1.53033C7.01019 1.23744 7.01019 0.762563 7.30309 0.46967Z" fill="#25252E"/>
</svg>
