<svg width="18" height="13" viewBox="0 0 18 13" fill="none" xmlns="http://www.w3.org/2000/svg">
<path d="M8.0625 12.625C8.58027 12.625 9 12.2053 9 11.6875C9 11.1697 8.58027 10.75 8.0625 10.75C7.54473 10.75 7.125 11.1697 7.125 11.6875C7.125 12.2053 7.54473 12.625 8.0625 12.625Z" fill="#0C9B18"/>
<path d="M12.4375 12.625C12.9553 12.625 13.375 12.2053 13.375 11.6875C13.375 11.1697 12.9553 10.75 12.4375 10.75C11.9197 10.75 11.5 11.1697 11.5 11.6875C11.5 12.2053 11.9197 12.625 12.4375 12.625Z" fill="#0C9B18"/>
<path d="M1.5 1.375H4.34375L6.66406 8.72176H13.6094L16.5 1.375" stroke="#0C9B18" stroke-width="1.5" stroke-linecap="round" stroke-linejoin="round"/>
</svg>
