<svg width="37" height="36" viewBox="0 0 37 36" fill="none" xmlns="http://www.w3.org/2000/svg">
<path d="M18 12.6094C15 12.6094 12.6094 15.0469 12.6094 18C12.6094 21 15 23.3906 18 23.3906C20.9531 23.3906 23.3906 21 23.3906 18C23.3906 15.0469 20.9531 12.6094 18 12.6094ZM18 21.5156C16.0781 21.5156 14.4844 19.9688 14.4844 18C14.4844 16.0781 16.0312 14.5312 18 14.5312C19.9219 14.5312 21.4688 16.0781 21.4688 18C21.4688 19.9688 19.9219 21.5156 18 21.5156ZM24.8438 12.4219C24.8438 11.7188 24.2812 11.1562 23.5781 11.1562C22.875 11.1562 22.3125 11.7188 22.3125 12.4219C22.3125 13.125 22.875 13.6875 23.5781 13.6875C24.2812 13.6875 24.8438 13.125 24.8438 12.4219ZM28.4062 13.6875C28.3125 12 27.9375 10.5 26.7188 9.28125C25.5 8.0625 24 7.6875 22.3125 7.59375C20.5781 7.5 15.375 7.5 13.6406 7.59375C11.9531 7.6875 10.5 8.0625 9.23438 9.28125C8.01562 10.5 7.64062 12 7.54688 13.6875C7.45312 15.4219 7.45312 20.625 7.54688 22.3594C7.64062 24.0469 8.01562 25.5 9.23438 26.7656C10.5 27.9844 11.9531 28.3594 13.6406 28.4531C15.375 28.5469 20.5781 28.5469 22.3125 28.4531C24 28.3594 25.5 27.9844 26.7188 26.7656C27.9375 25.5 28.3125 24.0469 28.4062 22.3594C28.5 20.625 28.5 15.4219 28.4062 13.6875ZM26.1562 24.1875C25.8281 25.125 25.0781 25.8281 24.1875 26.2031C22.7812 26.7656 19.5 26.625 18 26.625C16.4531 26.625 13.1719 26.7656 11.8125 26.2031C10.875 25.8281 10.1719 25.125 9.79688 24.1875C9.23438 22.8281 9.375 19.5469 9.375 18C9.375 16.5 9.23438 13.2188 9.79688 11.8125C10.1719 10.9219 10.875 10.2188 11.8125 9.84375C13.1719 9.28125 16.4531 9.42188 18 9.42188C19.5 9.42188 22.7812 9.28125 24.1875 9.84375C25.0781 10.1719 25.7812 10.9219 26.1562 11.8125C26.7188 13.2188 26.5781 16.5 26.5781 18C26.5781 19.5469 26.7188 22.8281 26.1562 24.1875Z" fill="#585866"/>
<rect x="1" y="0.5" width="35" height="35" rx="2.5" stroke="#E4E4EE"/>
</svg>
