<svg width="37" height="36" viewBox="0 0 37 36" fill="none" xmlns="http://www.w3.org/2000/svg">
<g clip-path="url(#clip0_96_15517)">
<path d="M28.3906 9.5625H8.60938C7.44392 9.5625 6.5 10.5123 6.5 11.6719V24.3281C6.5 25.4946 7.45086 26.4375 8.60938 26.4375H28.3906C29.5463 26.4375 30.5 25.4986 30.5 24.3281V11.6719C30.5 10.5143 29.5598 9.5625 28.3906 9.5625ZM28.0952 10.9688C27.6642 11.3974 20.2476 18.775 19.9916 19.0297C19.5931 19.4281 19.0634 19.6475 18.5 19.6475C17.9366 19.6475 17.4069 19.4281 17.0071 19.0284C16.8349 18.8571 9.50014 11.561 8.90478 10.9688H28.0952ZM7.90625 24.0419V11.959L13.983 18.0037L7.90625 24.0419ZM8.90567 25.0312L14.9801 18.9955L16.0141 20.0241C16.6781 20.6881 17.561 21.0538 18.5 21.0538C19.439 21.0538 20.3219 20.6881 20.9846 20.0254L22.0199 18.9955L28.0943 25.0312H8.90567ZM29.0938 24.0419L23.017 18.0037L29.0938 11.959V24.0419Z" fill="#585866"/>
</g>
<rect x="1" y="0.5" width="35" height="35" rx="2.5" stroke="#E4E4EE"/>
<defs>
<clipPath id="clip0_96_15517">
<rect width="24" height="24" fill="white" transform="translate(6.5 6)"/>
</clipPath>
</defs>
</svg>
