<svg width="37" height="36" viewBox="0 0 37 36" fill="none" xmlns="http://www.w3.org/2000/svg">
<g clip-path="url(#clip0_96_15512)">
<path d="M28.034 13.113C29.01 12.42 29.831 11.555 30.5 10.559V10.558C29.607 10.949 28.657 11.209 27.665 11.335C28.685 10.726 29.464 9.769 29.83 8.616C28.879 9.183 27.829 9.583 26.71 9.807C25.807 8.845 24.52 8.25 23.116 8.25C20.392 8.25 18.199 10.461 18.199 13.171C18.199 13.561 18.232 13.936 18.313 14.293C14.223 14.093 10.603 12.133 8.171 9.146C7.747 9.883 7.497 10.726 7.497 11.633C7.497 13.337 8.374 14.847 9.683 15.722C8.892 15.707 8.117 15.477 7.46 15.116V15.17C7.46 17.561 9.165 19.547 11.402 20.005C11.001 20.115 10.565 20.167 10.112 20.167C9.797 20.167 9.479 20.149 9.181 20.083C9.818 22.031 11.628 23.464 13.778 23.511C12.104 24.82 9.978 25.609 7.677 25.609C7.274 25.609 6.887 25.591 6.5 25.542C8.68 26.947 11.262 27.75 14.048 27.75C22.731 27.75 28.39 20.506 28.034 13.113Z" fill="#585866"/>
</g>
<rect x="1" y="0.5" width="35" height="35" rx="2.5" stroke="#E4E4EE"/>
<defs>
<clipPath id="clip0_96_15512">
<rect width="24" height="24" fill="white" transform="translate(6.5 6)"/>
</clipPath>
</defs>
</svg>
