<svg width="319" height="365" viewBox="0 0 319 365" fill="none" xmlns="http://www.w3.org/2000/svg">
<g clip-path="url(#clip0_538_5379)">
<path d="M66.8855 123.71C66.8937 123.803 66.8937 123.897 66.8855 123.99C66.8881 124.031 66.8881 124.073 66.8855 124.114C66.8708 124.17 66.8528 124.226 66.8316 124.28C66.8316 124.318 66.8316 124.35 66.7885 124.383C66.7611 124.433 66.7304 124.482 66.6968 124.528L66.6482 124.592C66.5949 124.651 66.5331 124.702 66.4648 124.743L88.2331 112.131C88.3025 112.09 88.3646 112.037 88.4165 111.975L88.465 111.911L88.5621 111.765L88.5999 111.668C88.6211 111.612 88.6391 111.555 88.6538 111.496C88.6568 111.455 88.6568 111.414 88.6538 111.373C88.6538 111.34 88.6538 111.314 88.6538 111.281C88.6566 111.236 88.6566 111.192 88.6538 111.147V111.093L66.8855 123.71Z" fill="#3E3E41"/>
<path d="M67.0485 67.1204L66.8867 123.71L88.655 111.093L88.7952 61.3765L67.0485 67.1204Z" fill="#0B5107"/>
<path d="M63.6543 121.849C63.6856 122.407 63.8484 122.95 64.1296 123.433C64.4107 123.916 64.8023 124.326 65.2724 124.63C66.1677 125.168 66.8904 124.732 66.8904 123.71L67.0522 67.1204L63.8161 67.9755L63.6543 121.849Z" fill="#198C15"/>
<path d="M139.12 200.824C139.12 201.157 139.12 201.501 139.082 201.846C139.05 202.184 139.012 202.529 138.958 202.873C138.904 203.217 138.834 203.561 138.753 203.911C138.673 204.26 138.581 204.61 138.473 204.986C138.365 205.341 138.246 205.696 138.117 206.062C137.988 206.406 137.847 206.745 137.702 207.089V207.143C137.556 207.477 137.4 207.805 137.238 208.133V208.187C137.071 208.515 136.893 208.837 136.698 209.16C136.504 209.483 136.229 209.929 135.981 210.306C135.825 210.537 135.663 210.768 135.501 210.994C135.248 211.333 134.994 211.672 134.724 211.994C134.455 212.317 134.261 212.532 134.023 212.785L133.964 212.844C133.721 213.102 133.473 213.35 133.22 213.592L133.182 213.624C132.923 213.868 132.659 214.099 132.389 214.318C132.119 214.538 131.85 214.743 131.558 214.942C131.278 215.141 130.987 215.323 130.696 215.479C130.413 215.647 130.122 215.798 129.822 215.931C129.547 216.057 129.266 216.168 128.98 216.265C128.716 216.358 128.446 216.434 128.171 216.491C127.914 216.547 127.652 216.587 127.389 216.609C127.14 216.625 126.889 216.625 126.64 216.609C126.408 216.597 126.177 216.568 125.949 216.523H125.917C125.702 216.482 125.491 216.422 125.286 216.345H125.248C125.046 216.266 124.849 216.173 124.66 216.066L128.684 218.394C128.794 218.46 128.907 218.519 129.024 218.572L129.266 218.674H129.304H129.331L129.595 218.76L129.838 218.825H129.924L130.145 218.862H130.34H130.523H131.095H131.278H131.451H131.618H131.79L131.963 218.83H132.06H132.114L132.276 218.792L132.443 218.749L132.61 218.701L132.772 218.653L132.869 218.62H132.918L133.085 218.561L133.252 218.497L133.414 218.432L133.581 218.362L133.705 218.303L133.872 218.222L134.045 218.136L134.217 218.045L134.395 217.953L134.552 217.862L134.735 217.754L134.919 217.642L135.102 217.529L135.285 217.405L135.399 217.324L135.463 217.281L135.658 217.141L135.846 217.002L136.057 216.84L136.229 216.7L136.44 216.528L136.672 216.329L136.914 216.109L137.001 216.028L137.038 215.996L137.157 215.883L137.448 215.598L137.739 215.302L137.783 215.254L137.842 215.189L138.106 214.904C138.252 214.743 138.397 214.576 138.538 214.404C138.807 214.081 139.077 213.742 139.314 213.403C139.332 213.377 139.352 213.352 139.374 213.328C139.492 213.167 139.606 213 139.719 212.828L139.794 212.715C140.043 212.339 140.285 211.957 140.512 211.569C140.625 211.381 140.733 211.188 140.835 210.994L141.04 210.601L141.067 210.548V210.515L141.278 210.09C141.337 209.967 141.391 209.843 141.445 209.719L141.52 209.558V209.504C141.52 209.461 141.558 209.418 141.574 209.381L141.714 209.047L141.828 208.757C141.865 208.665 141.898 208.574 141.936 208.477L142.033 208.197L142.124 207.939L142.205 207.686L142.286 207.428C142.286 207.353 142.335 207.278 142.356 207.197L142.421 206.966C142.421 206.89 142.464 206.81 142.48 206.734C142.497 206.659 142.518 206.578 142.54 206.503L142.572 206.374V206.31L142.621 206.089C142.621 206.019 142.653 205.944 142.664 205.874C142.675 205.804 142.696 205.729 142.707 205.659C142.718 205.589 142.707 205.519 142.745 205.454V205.336C142.742 205.313 142.742 205.289 142.745 205.266L142.777 205.056C142.777 204.992 142.777 204.922 142.777 204.852C142.777 204.782 142.777 204.718 142.777 204.648C142.777 204.578 142.777 204.513 142.777 204.443C142.774 204.399 142.774 204.354 142.777 204.309V204.244C142.777 204.174 142.777 204.11 142.777 204.04V203.836C142.777 203.771 142.777 203.701 142.777 203.631C142.777 203.561 142.777 203.497 142.777 203.432V203.271L139.12 200.824Z" fill="#CEAB17"/>
<path d="M107.396 219.083C107.396 219.422 107.396 219.76 107.353 220.105C107.326 220.443 107.283 220.788 107.229 221.132C107.175 221.476 107.105 221.826 107.024 222.17C106.857 222.889 106.644 223.597 106.388 224.289C106.258 224.633 106.118 224.972 105.972 225.311L105.945 225.365C105.8 225.698 105.643 226.031 105.482 226.36L105.449 226.413C105.287 226.741 105.109 227.064 104.91 227.381C104.71 227.699 104.441 228.156 104.193 228.527C104.036 228.758 103.874 228.99 103.713 229.215C103.461 229.574 103.202 229.907 102.936 230.216C102.704 230.49 102.472 230.754 102.235 231.006L102.175 231.071C101.931 231.329 101.683 231.576 101.431 231.813L101.393 231.845C101.134 232.087 100.854 232.324 100.6 232.539C100.331 232.76 100.061 232.969 99.7699 233.163C99.4894 233.357 99.2036 233.539 98.9123 233.701C98.6211 233.862 98.3244 234.024 98.0332 234.158C97.7594 234.285 97.4785 234.397 97.1918 234.491C96.9261 234.58 96.6561 234.656 96.3827 234.717C95.8806 234.831 95.3655 234.878 94.851 234.857C94.6206 234.848 94.3914 234.819 94.166 234.771H94.1283C93.9131 234.728 93.702 234.667 93.4972 234.588H93.4594C93.2583 234.51 93.0635 234.417 92.877 234.309L96.9005 236.637C97.0084 236.702 97.127 236.761 97.2403 236.815L97.483 236.917H97.5208H97.5477L97.812 237.008L98.0547 237.068H98.1518H98.1896H98.2759L98.497 237.1H98.6912H98.8745H99.2629H99.4463H99.6296H99.8022H99.9694H100.142C100.2 237.094 100.258 237.084 100.315 237.068H100.412H100.46L100.627 237.03L100.795 236.982L100.962 236.939L101.124 236.885L101.221 236.852H101.269L101.436 236.793L101.604 236.729L101.765 236.664L101.933 236.589L102.062 236.535H102.089L102.262 236.454L102.429 236.368L102.607 236.282L102.779 236.186L102.936 236.1C103.119 235.992 103.119 235.992 103.303 235.884L103.486 235.766L103.669 235.642L103.783 235.567L103.847 235.524L104.042 235.39L104.23 235.244L104.441 235.088L104.613 234.943L104.824 234.766L105.056 234.572L105.298 234.352L105.385 234.266L105.422 234.233L105.541 234.126L105.832 233.841L106.123 233.539L106.167 233.491L106.226 233.432L106.49 233.147L106.922 232.647C107.191 232.324 107.45 231.991 107.698 231.646L107.758 231.576L108.103 231.076L108.178 230.958C108.426 230.587 108.669 230.205 108.896 229.812C109.004 229.619 109.111 229.431 109.214 229.237L109.419 228.844C109.416 228.826 109.416 228.808 109.419 228.79C109.416 228.778 109.416 228.765 109.419 228.753C109.489 228.613 109.559 228.468 109.624 228.328L109.796 227.957C109.796 227.903 109.84 227.849 109.867 227.796V227.742C109.887 227.702 109.905 227.66 109.92 227.618C109.969 227.505 110.018 227.398 110.061 227.285C110.104 227.172 110.142 227.091 110.174 226.994C110.206 226.897 110.249 226.811 110.282 226.72L110.384 226.44C110.411 226.354 110.444 226.268 110.471 226.182C110.498 226.096 110.525 226.015 110.557 225.929C110.589 225.843 110.611 225.757 110.632 225.671C110.659 225.596 110.681 225.521 110.703 225.44L110.767 225.209L110.832 224.977C110.832 224.902 110.87 224.821 110.886 224.746L110.918 224.617V224.547C110.918 224.472 110.951 224.402 110.961 224.327L111.01 224.111C111.01 224.041 111.01 223.966 111.048 223.896C111.085 223.826 111.075 223.756 111.085 223.692V223.574C111.088 223.55 111.088 223.527 111.085 223.504L111.118 223.294C111.118 223.229 111.118 223.159 111.145 223.09C111.172 223.02 111.145 222.955 111.145 222.885C111.145 222.815 111.145 222.751 111.145 222.686C111.145 222.622 111.145 222.595 111.145 222.546C111.147 222.53 111.147 222.514 111.145 222.498V222.299C111.145 222.229 111.145 222.159 111.145 222.095C111.145 222.03 111.145 221.955 111.145 221.89C111.145 221.826 111.145 221.756 111.145 221.686V221.524L107.396 219.083Z" fill="#D6A200"/>
<path d="M142.934 130.191L138.916 127.862L139.121 200.824L143.139 203.158L142.934 130.191Z" fill="#CEAB17"/>
<path d="M76.7824 236.713C76.7824 237.051 76.7824 237.39 76.7392 237.734C76.7123 238.073 76.6691 238.418 76.6152 238.762C76.5613 239.106 76.4965 239.456 76.4156 239.8C76.3347 240.149 76.2376 240.504 76.1352 240.875C76.0327 241.23 75.9086 241.585 75.7792 241.951C75.6497 242.295 75.5149 242.639 75.3639 242.978V243.032C75.2183 243.366 75.0619 243.699 74.8947 244.027C74.8837 244.042 74.8746 244.058 74.8677 244.075C74.7005 244.404 74.5225 244.732 74.3283 245.049C74.1342 245.366 73.8591 245.818 73.611 246.194C73.4546 246.426 73.2982 246.657 73.131 246.883C72.8829 247.241 72.624 247.575 72.3543 247.883C72.1278 248.158 71.8905 248.421 71.6532 248.674L71.5938 248.738C71.3493 248.997 71.1012 249.244 70.8495 249.481L70.8118 249.513C70.5529 249.757 70.2886 249.988 70.0189 250.207C69.7492 250.427 69.4796 250.637 69.1937 250.831C68.9078 251.024 68.622 251.207 68.3307 251.368C68.0473 251.534 67.7557 251.684 67.457 251.82C67.1825 251.947 66.9017 252.06 66.6156 252.159C66.3499 252.248 66.0799 252.323 65.8066 252.385C65.3046 252.499 64.7892 252.545 64.2748 252.519C64.0444 252.51 63.8153 252.481 63.5898 252.433H63.5521C63.3379 252.386 63.1271 252.325 62.921 252.25H62.8833C62.6817 252.175 62.4869 252.084 62.3008 251.976L66.319 254.305C66.4322 254.369 66.5455 254.429 66.6641 254.482C66.7423 254.521 66.8235 254.553 66.9069 254.579H66.9392H66.9662C67.0526 254.613 67.1409 254.641 67.2305 254.665C67.3099 254.692 67.391 254.713 67.4732 254.73H67.5702H67.608H67.6943L67.9154 254.762H68.1096H68.293H68.6867H68.8647H69.0481H69.2153L69.3879 254.735H69.5605L69.7277 254.703H69.8248H69.8787L70.0405 254.66L70.2077 254.617C70.2648 254.606 70.3207 254.589 70.3749 254.568L70.5367 254.52L70.6338 254.488H70.6877L70.8495 254.429L71.0167 254.364L71.1839 254.294L71.3511 254.224L71.4752 254.165H71.5075L71.6747 254.084L71.8473 253.998L72.0199 253.907L72.1925 253.815L72.3489 253.724L72.5323 253.616L72.6671 253.504L72.8505 253.391L73.0339 253.267L73.1472 253.192L73.2065 253.149L73.4006 253.014L73.5948 252.869L73.7998 252.708L73.9778 252.568H74.0047L74.2151 252.39L74.4416 252.191L74.6843 251.976L74.8245 251.89L74.8569 251.858L74.9756 251.75L75.2668 251.465L75.5581 251.164L75.6066 251.116L75.6605 251.056L75.9248 250.766C76.0705 250.605 76.2161 250.438 76.3563 250.271C76.626 249.948 76.8849 249.615 77.133 249.271L77.1923 249.201L77.5213 248.663L77.5914 248.545C77.8449 248.174 78.0822 247.792 78.3088 247.399C78.4166 247.211 78.5245 247.017 78.627 246.824C78.7295 246.63 78.7672 246.566 78.8319 246.436L78.8589 246.383C78.8579 246.37 78.8579 246.358 78.8589 246.345C78.929 246.2 78.9991 246.06 79.0638 245.92C79.1286 245.78 79.1825 245.673 79.2364 245.549L79.3066 245.388L79.3335 245.334C79.3482 245.291 79.3663 245.25 79.3875 245.21C79.4306 245.097 79.4792 244.99 79.5223 244.877C79.5654 244.764 79.6032 244.683 79.641 244.586L79.7434 244.312C79.7812 244.221 79.8136 244.124 79.8459 244.032C79.8783 243.941 79.9052 243.86 79.9322 243.774C79.9592 243.688 79.9915 243.602 80.0185 243.516L80.0994 243.263L80.1641 243.027C80.1641 242.951 80.2127 242.871 80.2288 242.795L80.2936 242.564C80.2936 242.483 80.3313 242.408 80.3475 242.333L80.3799 242.204V242.139L80.4284 241.919C80.4284 241.849 80.4554 241.774 80.4716 241.704C80.4877 241.634 80.4985 241.558 80.5147 241.488L80.5471 241.279C80.5471 241.241 80.5471 241.203 80.5471 241.166C80.5496 241.143 80.5496 241.119 80.5471 241.096L80.5794 240.886C80.5794 240.822 80.5794 240.752 80.5794 240.682C80.5794 240.612 80.5794 240.547 80.5794 240.477C80.5794 240.408 80.5794 240.343 80.5794 240.278C80.5819 240.232 80.5819 240.185 80.5794 240.139V240.074V239.87C80.5794 239.805 80.5794 239.735 80.5794 239.665C80.5794 239.595 80.5794 239.531 80.5794 239.466C80.5794 239.402 80.5794 239.332 80.5794 239.262V239.101L76.7824 236.713Z" fill="#D6A200"/>
<path d="M137.389 123.173L137.491 123.28C137.631 123.44 137.758 123.609 137.874 123.786L137.923 123.861C138.04 124.047 138.146 124.239 138.241 124.437C138.352 124.666 138.445 124.903 138.522 125.146V125.173C138.602 125.426 138.667 125.711 138.727 125.964C138.783 126.252 138.824 126.543 138.851 126.835C138.884 127.153 138.9 127.473 138.899 127.793L142.917 130.121V129.874C142.917 129.804 142.917 129.734 142.917 129.664C142.917 129.594 142.917 129.53 142.917 129.465C142.917 129.401 142.917 129.325 142.917 129.261C142.917 129.196 142.917 129.196 142.917 129.164C142.917 129.132 142.917 129.099 142.917 129.073C142.917 129.046 142.917 128.933 142.917 128.863C142.917 128.793 142.917 128.728 142.917 128.658C142.917 128.589 142.89 128.513 142.88 128.438C142.869 128.363 142.88 128.341 142.88 128.298C142.88 128.298 142.88 128.266 142.88 128.244L142.831 128.029C142.831 127.954 142.793 127.873 142.772 127.798C142.75 127.723 142.728 127.637 142.702 127.556V127.508V127.481L142.653 127.325C142.621 127.233 142.583 127.136 142.545 127.045L142.432 126.781C142.383 126.674 142.329 126.572 142.275 126.47C142.222 126.367 142.168 126.292 142.114 126.201L142.065 126.125C142.065 126.125 142.065 126.098 142.065 126.082C141.952 125.921 141.833 125.77 141.709 125.625L141.601 125.512C141.495 125.396 141.381 125.287 141.261 125.184L141.132 125.071C140.976 124.947 140.812 124.834 140.641 124.732L136.623 122.404C136.795 122.503 136.959 122.617 137.114 122.742L137.243 122.855C137.297 122.959 137.345 123.065 137.389 123.173Z" fill="#CEAB17"/>
<path d="M111.204 148.456L107.186 146.127L107.391 219.094L111.414 221.422L111.204 148.456Z" fill="#CEAB17"/>
<path d="M105.654 141.437L105.762 141.55C105.898 141.709 106.024 141.876 106.14 142.05L106.188 142.131C106.305 142.317 106.411 142.509 106.507 142.706C106.611 142.938 106.703 143.175 106.782 143.416V143.448C106.867 143.707 106.935 143.972 106.987 144.239C107.043 144.525 107.084 144.814 107.111 145.105V145.132C107.138 145.438 107.154 145.756 107.154 146.089L111.177 148.418V148.165C111.177 148.095 111.177 148.025 111.177 147.961C111.177 147.896 111.177 147.826 111.177 147.756V147.552C111.177 147.525 111.177 147.493 111.177 147.461C111.177 147.434 111.177 147.401 111.177 147.369C111.177 147.337 111.177 147.229 111.15 147.165C111.123 147.1 111.15 147.025 111.123 146.96C111.097 146.896 111.123 146.81 111.086 146.74C111.079 146.691 111.07 146.643 111.059 146.595C111.062 146.577 111.062 146.559 111.059 146.541C111.048 146.468 111.031 146.396 111.01 146.326C111.01 146.245 110.972 146.17 110.951 146.095C110.929 146.019 110.908 145.933 110.881 145.853V145.804V145.772C110.881 145.723 110.843 145.67 110.827 145.621C110.811 145.573 110.757 145.433 110.719 145.342C110.681 145.25 110.643 145.164 110.606 145.073C110.559 144.968 110.507 144.866 110.449 144.766C110.401 144.675 110.341 144.583 110.287 144.497L110.239 144.417V144.379C110.126 144.218 110.007 144.062 109.883 143.916L109.775 143.803C109.667 143.691 109.554 143.578 109.435 143.475L109.306 143.368C109.151 143.242 108.987 143.129 108.815 143.029L104.797 140.7C104.969 140.8 105.133 140.913 105.288 141.039L105.417 141.147C105.433 141.211 105.568 141.324 105.654 141.437Z" fill="#CEAB17"/>
<path d="M80.8008 239.047L76.7826 236.718L76.5723 163.751L80.5958 166.08L80.8008 239.047Z" fill="#CEAB17"/>
<path d="M75.0401 159.062L75.148 159.174C75.2858 159.332 75.4119 159.499 75.5255 159.675L75.5741 159.75C75.6909 159.938 75.7971 160.131 75.8923 160.331C75.9948 160.557 76.0865 160.793 76.1728 161.041C76.2563 161.3 76.3247 161.564 76.3777 161.831C76.4317 162.106 76.4748 162.396 76.5072 162.697V162.724C76.5323 163.029 76.5485 163.346 76.5557 163.676L80.5739 166.01V165.967C80.5739 165.897 80.5739 165.827 80.5739 165.757C80.5739 165.688 80.5739 165.618 80.5739 165.553C80.5739 165.489 80.5739 165.419 80.5739 165.349V165.144C80.5765 165.112 80.5765 165.08 80.5739 165.048C80.5739 165.048 80.5739 164.988 80.5739 164.956C80.5739 164.924 80.5739 164.816 80.5739 164.746L80.5415 164.547L80.5092 164.327L80.4768 164.182C80.4748 164.164 80.4748 164.146 80.4768 164.128L80.4283 163.913C80.4283 163.832 80.3905 163.757 80.3689 163.681C80.3474 163.606 80.3204 163.52 80.2988 163.439V163.391V163.359C80.2988 163.31 80.2664 163.257 80.2449 163.208C80.2233 163.16 80.1801 163.02 80.1424 162.929C80.1046 162.837 80.0669 162.746 80.0238 162.66C79.9752 162.552 79.9267 162.45 79.8727 162.353C79.8188 162.256 79.7648 162.17 79.7055 162.084L79.6624 162.003L79.6354 161.966C79.5272 161.804 79.4083 161.649 79.2794 161.503L79.1716 161.39C79.0637 161.277 78.9504 161.164 78.8372 161.062C78.7946 161.023 78.7496 160.988 78.7023 160.955C78.5488 160.83 78.3866 160.717 78.2169 160.616L74.0801 158.309C74.2513 158.412 74.4152 158.527 74.5709 158.653L74.7003 158.76C74.8194 158.854 74.9328 158.955 75.0401 159.062Z" fill="#CEAB17"/>
<path d="M16.1211 179.569L20.0584 297.643L185.812 202.211L189.048 80.0015L16.1211 179.569ZM72.2839 253.756C67.5645 256.478 63.7243 254.294 63.7136 248.884L63.4978 175.917C63.4978 170.539 67.2733 163.924 72.0142 161.208C76.7551 158.492 80.5737 160.67 80.5899 166.08L80.7949 239.042C80.8164 244.452 76.9816 251.04 72.2839 253.756ZM102.898 236.137C98.1728 238.826 94.338 236.675 94.3218 231.259L94.1168 158.309C94.1168 152.904 97.8923 146.315 102.633 143.599C107.374 140.883 111.193 143.061 111.209 148.472L111.414 221.433C111.43 226.828 107.617 233.421 102.898 236.137ZM134.628 217.851C129.908 220.54 126.068 218.389 126.052 212.979L125.847 140.023C125.847 134.644 129.622 128.024 134.363 125.308C139.104 122.592 142.917 124.77 142.934 130.181L143.144 203.147C143.16 208.563 139.347 215.151 134.628 217.867V217.851Z" fill="#198C15"/>
<path d="M16.1158 179.574L12.0977 177.245L16.0349 295.314L20.0585 297.643L16.1158 179.574Z" fill="#D8A300"/>
<path d="M185.046 77.6726L12.0977 177.245L16.1158 179.574L189.07 80.0014L185.046 77.6726Z" fill="#E1AA00"/>
<path d="M308.392 266.772L136.959 362.806L13.0859 293.587L186.811 199.71L308.392 266.772Z" fill="#0B5107"/>
<path d="M136.959 362.805L136.953 364.865L13.0801 295.647L13.0855 293.587L136.959 362.805Z" fill="#7D5E00"/>
<path d="M304.912 151.645L303.925 269.359L182.08 200.232L182.317 82.158L304.912 151.645Z" fill="#209E19"/>
<path d="M304.913 151.645L309.379 149.053L308.392 266.772L303.926 269.359L304.913 151.645Z" fill="#A3A3A3"/>
<path d="M182.318 82.158L186.784 79.571L309.379 149.053L304.913 151.645L182.318 82.158Z" fill="#DEA800"/>
<path d="M260.961 266.089C260.961 266.422 260.961 266.766 260.918 267.105C260.918 267.449 260.848 267.788 260.794 268.138C260.74 268.487 260.67 268.832 260.589 269.181C260.503 269.531 260.411 269.88 260.303 270.257C260.195 270.612 260.076 270.967 259.947 271.332C259.818 271.677 259.683 272.015 259.532 272.354V272.413C259.381 272.747 259.23 273.075 259.063 273.403C259.06 273.421 259.06 273.439 259.063 273.457C258.895 273.785 258.717 274.108 258.523 274.425C258.329 274.742 258.054 275.199 257.806 275.57C257.649 275.807 257.493 276.033 257.326 276.259C257.078 276.617 256.819 276.951 256.549 277.259C256.323 277.534 256.085 277.797 255.848 278.055L255.789 278.114C255.544 278.373 255.296 278.62 255.044 278.857L255.007 278.894C254.748 279.136 254.467 279.367 254.214 279.583C253.944 279.803 253.674 280.008 253.383 280.201C253.097 280.4 252.811 280.583 252.52 280.739C252.229 280.895 251.932 281.056 251.646 281.191C251.372 281.316 251.091 281.428 250.805 281.524C250.539 281.613 250.269 281.688 249.996 281.75C249.738 281.804 249.477 281.844 249.214 281.868C248.964 281.884 248.714 281.884 248.464 281.868C248.234 281.854 248.006 281.825 247.779 281.782H247.742C247.526 281.741 247.315 281.68 247.11 281.599H247.073C246.872 281.521 246.677 281.428 246.49 281.32L250.508 283.649C250.616 283.713 250.735 283.772 250.848 283.826L251.096 283.928H251.129H251.156L251.42 284.02L251.663 284.084H251.76H251.797H251.884C251.957 284.1 252.03 284.111 252.105 284.116H252.304H252.482H253.054H253.238H253.405H253.577H253.75L253.917 284.084H254.014H254.068L254.23 284.047L254.397 284.004L254.564 283.955L254.726 283.901L254.823 283.869H254.877L255.039 283.81L255.206 283.745L255.373 283.681L255.541 283.606L255.665 283.552H255.692L255.864 283.476L256.037 283.39L256.209 283.299L256.382 283.202L256.538 283.116L256.722 283.009L256.905 282.896L257.088 282.777L257.272 282.659L257.385 282.578L257.444 282.535L257.639 282.395L257.833 282.256L258.038 282.094L258.216 281.954L258.426 281.782L258.653 281.583L258.901 281.363L258.987 281.282L259.019 281.25L259.138 281.137L259.429 280.852L259.721 280.556L259.769 280.502L259.823 280.443L260.087 280.158L260.519 279.658C260.788 279.335 261.058 278.996 261.295 278.652C261.318 278.631 261.338 278.608 261.355 278.582L261.705 278.082C261.727 278.043 261.75 278.006 261.775 277.969C262.029 277.593 262.266 277.211 262.493 276.824C262.601 276.635 262.709 276.442 262.811 276.248L263.016 275.856V275.802V275.764C263.086 275.624 263.156 275.484 263.221 275.345L263.394 274.973L263.464 274.812V274.758C263.464 274.715 263.501 274.672 263.518 274.635L263.658 274.301C263.696 274.204 263.739 274.108 263.771 274.011C263.803 273.914 263.847 273.823 263.879 273.731L263.981 273.451C263.981 273.365 264.041 273.279 264.068 273.193C264.095 273.107 264.122 273.021 264.154 272.935C264.186 272.849 264.203 272.768 264.23 272.682L264.294 272.456L264.359 272.225L264.424 271.994C264.424 271.913 264.461 271.838 264.478 271.763L264.51 271.634V271.569C264.51 271.494 264.542 271.424 264.553 271.349L264.602 271.133C264.602 271.058 264.602 270.988 264.639 270.918C264.677 270.848 264.666 270.778 264.677 270.709V270.596C264.679 270.572 264.679 270.549 264.677 270.526L264.71 270.316C264.71 270.246 264.71 270.181 264.71 270.112C264.71 270.042 264.71 269.977 264.71 269.907C264.71 269.837 264.71 269.773 264.71 269.703C264.71 269.633 264.71 269.611 264.71 269.568V269.504V269.299C264.71 269.23 264.71 269.165 264.71 269.095C264.71 269.025 264.71 268.961 264.71 268.891C264.71 268.821 264.71 268.756 264.71 268.692V268.53L260.961 266.089Z" fill="#CEAB17"/>
<path d="M229.233 284.353C229.233 284.692 229.233 285.031 229.19 285.375C229.163 285.714 229.119 286.058 229.065 286.402C229.011 286.746 228.947 287.091 228.866 287.44C228.697 288.158 228.483 288.864 228.224 289.554C228.095 289.893 227.96 290.237 227.809 290.576V290.629C227.663 290.963 227.507 291.296 227.34 291.619L227.313 291.673C227.145 292.001 226.967 292.329 226.773 292.646C226.579 292.964 226.304 293.415 226.056 293.792C225.899 294.023 225.743 294.254 225.576 294.48C225.328 294.839 225.069 295.172 224.799 295.481C224.573 295.755 224.335 296.018 224.098 296.271L224.039 296.336C223.794 296.594 223.546 296.841 223.294 297.078L223.257 297.11C222.998 297.35 222.733 297.582 222.464 297.804C222.189 298.025 221.924 298.234 221.633 298.428C221.347 298.622 221.061 298.804 220.77 298.966C220.487 299.131 220.195 299.282 219.896 299.417C219.622 299.545 219.341 299.658 219.055 299.756C218.789 299.845 218.519 299.921 218.246 299.982C217.744 300.097 217.229 300.142 216.714 300.117C216.484 300.105 216.255 300.076 216.029 300.031H215.992C215.777 299.984 215.567 299.922 215.361 299.848H215.323C215.121 299.773 214.926 299.681 214.74 299.573L218.758 301.902C218.872 301.967 218.985 302.026 219.104 302.08C219.182 302.118 219.263 302.151 219.346 302.177H219.379L219.643 302.263L219.886 302.327H219.983H220.021H220.107L220.328 302.359H220.522H220.705H221.277H221.461H221.628H221.8L221.968 302.332L222.07 302.445H222.167H222.221L222.383 302.402L222.55 302.359L222.717 302.311L222.879 302.263L222.976 302.23H223.03L223.192 302.171L223.359 302.107L223.526 302.037L223.694 301.967L223.818 301.908H223.85L224.017 301.827L224.19 301.741L224.362 301.649L224.535 301.558L224.691 301.467L224.875 301.359L225.053 301.246L225.236 301.133L225.419 301.009L225.533 300.934L225.592 300.891L225.786 300.757L225.98 300.611L226.185 300.45L226.363 300.31L226.579 300.133L226.806 299.934L227.048 299.719L227.14 299.633L227.172 299.6L227.291 299.493L227.582 299.208L227.873 298.907L227.922 298.858L227.976 298.794C228.068 298.702 228.154 298.605 228.24 298.509C228.327 298.412 228.531 298.181 228.672 298.014C228.941 297.691 229.2 297.358 229.448 297.013C229.47 296.99 229.49 296.965 229.508 296.938C229.626 296.777 229.745 296.61 229.858 296.443L229.928 296.325C230.182 295.949 230.419 295.572 230.646 295.179C230.754 294.991 230.861 294.798 230.964 294.604C231.066 294.41 231.104 294.346 231.169 294.217V294.163C231.168 294.15 231.168 294.138 231.169 294.125C231.239 293.98 231.309 293.84 231.374 293.7C231.439 293.561 231.493 293.453 231.546 293.329L231.617 293.168L231.644 293.114C231.658 293.072 231.676 293.03 231.697 292.99C231.746 292.878 231.789 292.765 231.832 292.657C231.875 292.549 231.913 292.463 231.951 292.367L232.053 292.092C232.091 292.001 232.124 291.904 232.156 291.813L232.242 291.555C232.275 291.468 232.302 291.382 232.329 291.296L232.409 291.044L232.474 290.812C232.474 290.737 232.523 290.656 232.539 290.581L232.604 290.344C232.604 290.269 232.641 290.194 232.658 290.119L232.69 289.989V289.925L232.738 289.704C232.738 289.634 232.765 289.559 232.782 289.489C232.798 289.419 232.782 289.344 232.825 289.274L232.857 289.064C232.86 289.027 232.86 288.989 232.857 288.951C232.86 288.928 232.86 288.905 232.857 288.882L232.889 288.672C232.889 288.607 232.889 288.537 232.889 288.467C232.889 288.397 232.889 288.333 232.889 288.263C232.889 288.193 232.889 288.129 232.889 288.059C232.892 288.014 232.892 287.969 232.889 287.924V287.86V287.655C232.889 287.591 232.889 287.521 232.889 287.451C232.889 287.381 232.889 287.316 232.889 287.252C232.889 287.187 232.889 287.117 232.889 287.048V286.886L229.233 284.353Z" fill="#CEAB17"/>
<path d="M264.77 195.456L260.752 193.122L260.957 266.088L264.98 268.417L264.77 195.456Z" fill="#CEAB17"/>
<path d="M198.618 301.978C198.618 302.311 198.618 302.655 198.581 302.999C198.554 303.338 198.516 303.682 198.457 304.027C198.403 304.371 198.332 304.715 198.252 305.065C198.171 305.414 198.074 305.764 197.971 306.14C197.863 306.495 197.745 306.85 197.615 307.216C197.491 307.56 197.351 307.904 197.2 308.243V308.297C197.054 308.63 196.898 308.958 196.731 309.287C196.725 309.306 196.716 309.324 196.704 309.34C196.536 309.668 196.364 309.991 196.164 310.314C195.965 310.637 195.7 311.083 195.447 311.459C195.291 311.691 195.134 311.922 194.967 312.148C194.719 312.506 194.46 312.84 194.19 313.148C193.964 313.422 193.732 313.686 193.489 313.939L193.435 314.003C193.187 314.261 192.939 314.509 192.685 314.745L192.653 314.778C192.389 315.02 192.114 315.251 191.855 315.472C191.58 315.692 191.316 315.902 191.024 316.095C190.738 316.294 190.453 316.477 190.161 316.633C189.878 316.798 189.586 316.949 189.288 317.085C189 317.214 188.719 317.327 188.446 317.424C188.18 317.513 187.91 317.588 187.637 317.65C187.137 317.764 186.623 317.809 186.111 317.784C185.881 317.772 185.652 317.743 185.426 317.698H185.388C185.174 317.651 184.963 317.59 184.757 317.515H184.725C184.521 317.44 184.325 317.349 184.137 317.241L188.155 319.57C188.268 319.634 188.381 319.693 188.5 319.747L188.743 319.844H188.781L189.05 319.93C189.128 319.957 189.207 319.979 189.288 319.995H189.39H189.422H189.509L189.735 320.027H189.929H190.113H190.684H190.868H191.035H191.208H191.38L191.553 319.995H191.65H191.698L191.866 319.952L192.033 319.909L192.195 319.86L192.362 319.812L192.459 319.78H192.513L192.68 319.72L192.842 319.661L193.009 319.591L193.176 319.521L193.3 319.462H193.333L193.5 319.382L193.672 319.295L193.845 319.204L194.018 319.113L194.174 319.021L194.357 318.914L194.541 318.801L194.719 318.688L194.902 318.564L195.015 318.489L195.075 318.446L195.269 318.306L195.463 318.166L195.668 318.005L195.846 317.865L196.056 317.687L196.288 317.488L196.531 317.268L196.617 317.187L196.655 317.155L196.768 317.047L197.06 316.762L197.351 316.461L197.399 316.413L197.453 316.348C197.545 316.257 197.631 316.16 197.718 316.063C197.804 315.966 198.009 315.735 198.149 315.563C198.415 315.24 198.674 314.907 198.926 314.563L198.98 314.487C199.098 314.326 199.217 314.159 199.33 313.987L199.406 313.874C199.654 313.498 199.897 313.121 200.123 312.729C200.236 312.54 200.339 312.347 200.447 312.153C200.555 311.96 200.582 311.895 200.646 311.761C200.649 311.743 200.649 311.725 200.646 311.707C200.649 311.694 200.649 311.682 200.646 311.669L200.857 311.244C200.911 311.126 200.97 311.002 201.024 310.879C201.078 310.755 201.072 310.771 201.094 310.717L201.121 310.663L201.175 310.534C201.223 310.427 201.267 310.314 201.315 310.206L201.428 309.916C201.466 309.824 201.498 309.733 201.531 309.642C201.569 309.545 201.601 309.453 201.633 309.362L201.725 309.104L201.806 308.846L201.887 308.593C201.887 308.512 201.935 308.437 201.957 308.356L202.022 308.125L202.081 307.888C202.081 307.813 202.119 307.738 202.14 307.662C202.162 307.587 202.14 307.576 202.14 307.533V307.463L202.189 307.248C202.189 307.178 202.221 307.103 202.232 307.033C202.243 306.963 202.232 306.888 202.275 306.818C202.318 306.748 202.275 306.678 202.313 306.608V306.495C202.31 306.472 202.31 306.449 202.313 306.425C202.313 306.355 202.313 306.286 202.313 306.216C202.313 306.146 202.313 306.081 202.313 306.011C202.313 305.941 202.313 305.877 202.34 305.807C202.367 305.737 202.34 305.672 202.34 305.602C202.337 305.558 202.337 305.513 202.34 305.468C202.34 305.468 202.34 305.436 202.34 305.42C202.34 305.403 202.34 305.285 202.34 305.215C202.34 305.145 202.34 305.081 202.34 305.011C202.34 304.941 202.34 304.876 202.34 304.807V304.608C202.34 304.554 202.34 304.5 202.34 304.446L198.618 301.978Z" fill="#CEAB17"/>
<path d="M259.22 188.427L259.328 188.54C259.464 188.698 259.59 188.866 259.705 189.04L259.754 189.12C259.87 189.306 259.977 189.498 260.072 189.696C260.177 189.929 260.269 190.168 260.347 190.411C260.432 190.67 260.5 190.934 260.552 191.202C260.608 191.49 260.65 191.781 260.676 192.073C260.703 192.38 260.719 192.697 260.719 193.03L264.743 195.359V195.418C264.743 195.349 264.743 195.279 264.743 195.209C264.743 195.139 264.743 195.074 264.743 195.004C264.743 194.934 264.743 194.87 264.743 194.805V194.601C264.743 194.569 264.743 194.536 264.743 194.504C264.743 194.472 264.743 194.44 264.743 194.407C264.743 194.375 264.743 194.273 264.716 194.203C264.689 194.133 264.716 194.063 264.716 193.999C264.716 193.934 264.716 193.848 264.678 193.778C264.68 193.73 264.68 193.681 264.678 193.633C264.68 193.615 264.68 193.597 264.678 193.579C264.667 193.506 264.651 193.434 264.629 193.364C264.629 193.289 264.592 193.208 264.57 193.133C264.548 193.057 264.527 192.971 264.5 192.891V192.842V192.815C264.5 192.762 264.462 192.713 264.446 192.659C264.43 192.606 264.376 192.471 264.338 192.38C264.3 192.288 264.263 192.202 264.225 192.111C264.176 192.009 264.128 191.906 264.068 191.804C264.009 191.702 263.961 191.621 263.907 191.535L263.858 191.46V191.417C263.745 191.256 263.626 191.1 263.502 190.954L263.394 190.847C263.288 190.731 263.174 190.621 263.054 190.519L262.925 190.406C262.771 190.28 262.607 190.167 262.434 190.067L258.416 187.738C258.588 187.838 258.752 187.951 258.907 188.077L259.036 188.185C258.998 188.206 259.112 188.319 259.22 188.427Z" fill="#CEAB17"/>
<path d="M233.04 213.721L229.021 211.392L229.232 284.358L233.25 286.687L233.04 213.721Z" fill="#CEAB17"/>
<path d="M227.49 206.713L227.598 206.826C227.735 206.983 227.862 207.15 227.975 207.326L228.024 207.407C228.142 207.592 228.248 207.784 228.342 207.982C228.444 208.208 228.536 208.445 228.622 208.692C228.706 208.951 228.774 209.215 228.827 209.483C228.881 209.757 228.924 210.02 228.957 210.348C228.984 210.655 229 210.978 229.005 211.306L233.023 213.635V213.592C233.023 213.522 233.023 213.457 233.023 213.387C233.023 213.317 233.023 213.247 233.023 213.183C233.023 213.118 233.023 213.048 233.023 212.978V212.774C233.026 212.744 233.026 212.713 233.023 212.683C233.023 212.65 233.023 212.623 233.023 212.591C233.023 212.559 233.023 212.451 233.023 212.381L232.991 212.182L232.959 211.962L232.926 211.817V211.79C232.924 211.774 232.924 211.757 232.926 211.741L232.878 211.526C232.878 211.446 232.84 211.37 232.819 211.29C232.797 211.209 232.77 211.134 232.748 211.053V211.005V210.972C232.748 210.924 232.716 210.87 232.694 210.822C232.673 210.773 232.63 210.634 232.592 210.542C232.554 210.451 232.516 210.359 232.473 210.273C232.425 210.166 232.376 210.063 232.322 209.967C232.268 209.87 232.214 209.784 232.155 209.692C232.096 209.601 232.155 209.644 232.112 209.617V209.579C232.004 209.417 231.885 209.263 231.756 209.117L231.648 209.004C231.54 208.886 231.427 208.778 231.314 208.676C231.271 208.637 231.226 208.601 231.179 208.568C231.024 208.444 230.862 208.329 230.693 208.224L226.67 205.895C226.842 205.997 227.006 206.112 227.161 206.239L227.29 206.347C227.363 206.465 227.43 206.587 227.49 206.713Z" fill="#CEAB17"/>
<path d="M202.637 304.312L198.619 301.983L198.414 229.016L202.432 231.345L202.637 304.312Z" fill="#CEAB17"/>
<path d="M196.882 224.327L196.985 224.439C197.123 224.598 197.251 224.765 197.368 224.94C197.368 224.967 197.368 224.993 197.411 225.015C197.531 225.201 197.64 225.395 197.734 225.596C197.843 225.826 197.937 226.063 198.015 226.306C198.09 226.559 198.161 226.844 198.22 227.096C198.278 227.384 198.321 227.675 198.349 227.968C198.382 228.286 198.398 228.605 198.398 228.925L202.416 231.254V231.211C202.416 231.141 202.416 231.071 202.416 231.006C202.416 230.942 202.416 230.866 202.416 230.802C202.416 230.737 202.416 230.662 202.416 230.598V230.393C202.416 230.361 202.416 230.329 202.416 230.296C202.416 230.264 202.416 230.232 202.416 230.205C202.416 230.178 202.416 230.065 202.416 229.995C202.416 229.925 202.416 229.861 202.389 229.791C202.362 229.721 202.389 229.646 202.351 229.576C202.314 229.506 202.351 229.474 202.324 229.43V229.404C202.324 229.404 202.324 229.371 202.324 229.355L202.276 229.14C202.276 229.059 202.238 228.984 202.216 228.903C202.195 228.823 202.173 228.742 202.146 228.667V228.613V228.586L202.098 228.436C202.06 228.339 202.028 228.247 201.99 228.156C201.952 228.064 201.914 227.973 201.871 227.887C201.823 227.779 201.769 227.677 201.715 227.58C201.661 227.484 201.607 227.398 201.553 227.306L201.505 227.231C201.503 227.218 201.503 227.206 201.505 227.193C201.394 227.031 201.274 226.877 201.143 226.731L201.041 226.618C200.934 226.502 200.821 226.392 200.701 226.29L200.571 226.177C200.416 226.053 200.252 225.94 200.081 225.838L196.062 223.509C196.231 223.612 196.393 223.725 196.548 223.848L196.683 223.961C196.661 224.101 196.769 224.208 196.882 224.327Z" fill="#CEAB17"/>
<path d="M137.956 244.834L136.953 364.865L307.653 267.487L310.889 145.277L137.956 244.834ZM194.119 319.021C189.4 321.743 185.565 319.559 185.549 314.149L185.338 241.182C185.338 235.777 189.114 229.188 193.86 226.472C198.607 223.756 202.414 225.935 202.431 231.313L202.652 304.306C202.652 309.717 198.838 316.305 194.119 319.021ZM224.733 301.397C220.013 304.118 216.179 301.935 216.162 296.524L215.952 223.557C215.952 218.152 219.728 211.564 224.468 208.848C229.209 206.132 233.028 208.31 233.044 213.688L233.249 286.655C233.265 292.092 229.452 298.681 224.733 301.397ZM256.463 283.111C251.744 285.8 247.903 283.649 247.887 278.233L247.682 205.266C247.682 199.861 251.458 193.273 256.199 190.557C260.939 187.841 264.758 190.019 264.774 195.429L264.979 268.396C264.995 273.828 261.182 280.395 256.463 283.132V283.111Z" fill="#198C15"/>
<path d="M137.957 244.839L133.934 242.505L137.24 360.579L141.102 362.359L137.957 244.839Z" fill="#D8A300"/>
<path d="M306.888 142.938L133.934 242.505L137.957 244.839L310.906 145.266L306.888 142.938Z" fill="#E1AA00"/>
<path d="M134.693 246.652L136.878 365L11.8613 295.244L12.0986 177.165L134.693 246.652Z" fill="#198C15"/>
<path d="M134.693 246.652L138.447 242.801L146.511 359.122L136.878 365L134.693 246.652Z" fill="#209E19"/>
<path d="M12.0996 177.165L16.5654 174.578L139.16 244.065L134.694 246.652L12.0996 177.165Z" fill="#DEA800"/>
<path d="M145.636 228.419C145.634 228.398 145.634 228.376 145.636 228.355C145.634 228.341 145.634 228.326 145.636 228.312C145.636 228.263 145.636 228.22 145.636 228.177C145.636 228.134 145.636 228.016 145.636 227.935L145.604 227.72L145.572 227.532C145.572 227.467 145.545 227.403 145.534 227.333C145.523 227.263 145.534 227.204 145.491 227.139C145.493 227.127 145.493 227.114 145.491 227.102V227.075C145.491 227.032 145.491 226.989 145.491 226.946L145.442 226.763L145.394 226.58C145.378 226.54 145.365 226.498 145.356 226.456V226.424C145.356 226.365 145.318 226.306 145.297 226.247C145.275 226.187 145.259 226.134 145.243 226.074L145.178 225.897C145.178 225.897 145.178 225.859 145.178 225.838V225.811L145.146 225.725L145.081 225.553C145.081 225.499 145.032 225.44 145.011 225.381C144.989 225.321 144.962 225.268 144.935 225.214V225.182L144.87 225.042L144.79 224.87L144.709 224.692L144.649 224.574V224.542C144.617 224.482 144.585 224.423 144.558 224.364L144.461 224.187C144.423 224.127 144.39 224.068 144.358 224.009V223.977L144.277 223.837L144.158 223.649C144.121 223.584 144.083 223.52 144.04 223.461L144.007 223.407L143.927 223.283L143.792 223.084L143.625 222.858L143.457 222.638L143.242 222.363L143.193 222.304L143.01 222.089L142.869 221.939L142.713 221.772L142.627 221.675L142.503 221.562C142.389 221.449 142.271 221.336 142.147 221.229C142.082 221.165 142.014 221.106 141.942 221.051L141.839 220.965L128.355 228.64L128.571 228.812L128.776 228.989L129.132 229.328L129.337 229.533L129.499 229.705C129.607 229.823 129.715 229.941 129.817 230.07L129.871 230.124C130.011 230.296 130.146 230.468 130.276 230.662C130.405 230.84 130.534 231.022 130.658 231.2V231.232C130.777 231.42 130.896 231.609 131.009 231.802C131.124 231.999 131.232 232.198 131.333 232.399C131.435 232.598 131.532 232.803 131.624 233.007C131.71 233.211 131.797 233.416 131.872 233.625C131.948 233.83 132.018 234.04 132.077 234.244C132.142 234.448 132.196 234.658 132.244 234.862C132.293 235.072 132.336 235.282 132.368 235.486C132.401 235.691 132.428 235.89 132.444 236.089V236.132C132.444 236.234 132.444 236.331 132.444 236.428L132.341 236.487V246.797C132.341 246.985 132.341 247.163 132.314 247.335C132.314 247.41 132.314 247.48 132.314 247.55L132.266 247.867C132.266 247.937 132.239 248.007 132.223 248.071C132.206 248.136 132.174 248.265 132.147 248.351C132.12 248.437 132.109 248.48 132.088 248.545C132.058 248.629 132.024 248.711 131.985 248.792C131.985 248.851 131.937 248.91 131.91 248.97C131.883 249.029 131.829 249.12 131.786 249.19L131.694 249.341C131.646 249.411 131.592 249.475 131.538 249.54L131.441 249.663C131.376 249.733 131.311 249.792 131.246 249.852L131.149 249.938C131.049 250.021 130.943 250.097 130.831 250.164L144.477 242.252C144.589 242.188 144.695 242.114 144.795 242.032C144.83 242.004 144.862 241.973 144.892 241.94C144.961 241.883 145.025 241.822 145.086 241.757C145.124 241.72 145.151 241.677 145.189 241.634C145.226 241.591 145.291 241.505 145.34 241.435L145.431 241.284C145.475 241.209 145.518 241.139 145.555 241.058L145.636 240.886L145.733 240.639L145.798 240.445C145.798 240.354 145.847 240.262 145.868 240.165C145.89 240.069 145.901 240.031 145.911 239.956C145.922 239.88 145.944 239.751 145.96 239.644C145.976 239.536 145.96 239.499 145.987 239.429C146.014 239.359 145.987 239.386 145.987 239.364C145.987 239.235 145.987 239.101 145.987 238.966V238.891L146.019 228.575L145.874 228.661C145.642 228.57 145.642 228.495 145.636 228.419Z" fill="#B68A00"/>
<path d="M127.908 228.473L127.87 228.516L127.784 228.613L127.617 228.79L127.53 228.898L127.385 229.075C127.352 229.118 127.315 229.156 127.282 229.194L127.217 229.285C127.104 229.43 126.996 229.581 126.894 229.732L126.818 229.834V229.871C126.673 230.092 126.532 230.318 126.403 230.549L126.317 230.71C126.203 230.915 126.101 231.125 126.004 231.34C125.987 231.365 125.973 231.392 125.961 231.42C125.958 231.431 125.958 231.442 125.961 231.453C125.864 231.668 125.777 231.888 125.696 232.103V232.146C125.659 232.254 125.621 232.367 125.589 232.475C125.571 232.52 125.557 232.567 125.545 232.614C125.508 232.749 125.47 232.883 125.438 233.018V233.088C125.438 233.12 125.438 233.152 125.438 233.184C125.438 233.217 125.405 233.308 125.394 233.373L125.346 233.647C125.346 233.647 125.346 233.647 125.346 233.679C125.346 233.781 125.314 233.884 125.303 233.98V234.158C125.303 234.158 125.303 234.201 125.303 234.222C125.303 234.244 125.303 234.255 125.303 234.271V234.545V234.728L138.7 242.494C138.7 242.327 138.7 242.155 138.7 241.956C138.7 241.956 138.7 241.919 138.7 241.897C138.7 241.73 138.733 241.569 138.76 241.402C138.762 241.392 138.762 241.381 138.76 241.37C138.76 241.214 138.819 241.064 138.851 240.908C138.851 240.875 138.851 240.843 138.851 240.805C138.894 240.644 138.938 240.477 138.986 240.311C139 240.263 139.016 240.217 139.035 240.171C139.072 240.047 139.11 239.929 139.153 239.805C139.234 239.585 139.321 239.369 139.418 239.154C139.418 239.117 139.455 239.079 139.472 239.036C139.569 238.826 139.676 238.616 139.784 238.407C139.816 238.357 139.845 238.304 139.871 238.251C140 238.019 140.14 237.794 140.286 237.573L140.383 237.433C140.486 237.283 140.593 237.132 140.707 236.987L140.874 236.777L141.019 236.6C141.106 236.503 141.187 236.406 141.273 236.315L141.365 236.218C141.419 236.159 141.473 236.105 141.532 236.051L128.08 228.333L127.908 228.473Z" fill="#CA9900"/>
<path d="M198.203 67.4162C198.203 64.6141 196.202 63.4901 193.764 64.8938L18.4744 165.811C16.0257 167.22 14.0571 170.652 14.0625 173.427L14.0949 185.259C14.0949 188.061 16.0905 189.185 18.5337 187.781L193.823 86.8585C196.261 85.4548 198.235 82.0504 198.23 79.2483L198.203 67.4162Z" fill="#CEAB17"/>
<path d="M290.89 134.139L172.707 66.1038C169.859 64.4581 167.54 65.7812 167.529 69.0458V79.1676C167.529 82.4376 169.822 86.4175 172.675 88.0579L290.852 156.093C293.7 157.706 296.019 156.415 296.03 153.151V143.024C296.041 139.759 293.738 135.779 290.89 134.139Z" fill="#CEAB17"/>
<path d="M183.511 56.7942C183.386 56.726 183.257 56.6684 183.122 56.6221L182.998 56.5899C182.891 56.557 182.781 56.5354 182.669 56.5253C182.644 56.5228 182.619 56.5228 182.594 56.5253H182.157H182.038H181.904L181.758 56.5522H181.677H181.623C181.535 56.5723 181.449 56.5975 181.364 56.6275H181.305H181.24L181.111 56.6705L180.873 56.7674H180.846H180.809L180.641 56.848C180.561 56.8857 180.484 56.9289 180.41 56.9771H180.383L179.191 57.6655L175.776 59.6286L170.383 62.7318L163.253 66.8354L154.623 71.7995L144.737 77.6349L133.842 83.906L122.176 90.6234L109.975 97.6474L97.4787 104.817L84.9441 112.056C80.8235 114.422 76.7064 116.792 72.593 119.166L60.6733 126.039L49.4278 132.493L39.0938 138.409L29.9248 143.696L22.1419 148.176L15.9987 151.71C11.2308 154.458 6.32273 157.007 1.91083 160.315C1.4362 160.718 1.49553 161.078 1.91083 161.39L1.82453 161.546C1.71127 161.756 1.60879 161.966 1.50632 162.181C1.50632 162.181 1.50631 162.229 1.46856 162.262C1.46622 162.272 1.46622 162.283 1.46856 162.294C1.37147 162.509 1.28518 162.724 1.20428 162.945V162.988C1.16653 163.095 1.12876 163.203 1.0964 163.31L1.04786 163.45C1.01011 163.59 0.972364 163.725 0.940003 163.859V163.924C0.937998 163.958 0.937998 163.992 0.940003 164.026C0.940003 164.085 0.907632 164.149 0.896845 164.209L0.848305 164.488C0.849586 164.503 0.849586 164.517 0.848305 164.531C0.848305 164.633 0.848302 164.736 0.810547 164.838V165.015C0.810547 165.015 0.810547 165.053 0.810547 165.074C0.810547 165.096 0.810547 165.112 0.810547 165.128V165.403V165.585L14.2081 173.352C14.2081 173.179 14.2081 173.013 14.2081 172.841C14.2081 172.841 14.2081 172.798 14.2081 172.776C14.2081 172.615 14.2404 172.448 14.2674 172.281V172.292C14.2944 172.136 14.3267 171.98 14.3591 171.83C14.3591 171.797 14.3591 171.76 14.3591 171.727C14.3968 171.561 14.4454 171.399 14.4939 171.233C14.5058 171.185 14.5202 171.139 14.5371 171.093C14.5748 170.969 14.618 170.845 14.6611 170.727C14.742 170.507 14.8283 170.291 14.9254 170.071L14.9793 169.958C15.0764 169.748 15.1789 169.538 15.2922 169.329C15.3245 169.275 15.3515 169.221 15.3785 169.167C15.5079 168.941 15.6481 168.71 15.7938 168.49L15.8909 168.35C15.9987 168.199 16.1012 168.054 16.2145 167.909C16.3277 167.764 16.3223 167.764 16.3817 167.699L16.5273 167.516L16.7808 167.237L16.8671 167.134C16.948 167.054 11.8727 174.126 11.9536 174.029L122.359 234.534C122.499 234.615 125.023 238.95 125.158 239.041C125.293 239.133 124.581 228.855 124.619 228.898C124.657 228.941 132.051 240.026 132.121 240.079C132.191 240.133 138.362 236.799 138.362 236.799L138.55 236.616L138.615 236.557C138.739 236.438 138.863 236.331 138.993 236.223C139.127 236.116 139.268 236.008 139.408 235.911C139.554 235.809 139.705 235.712 139.856 235.626L296.025 145.724V153.151C296.025 153.334 296.025 153.506 295.998 153.689C295.998 153.759 295.998 153.829 295.998 153.898C295.998 153.968 295.971 154.108 295.955 154.21C295.939 154.313 295.955 154.345 295.912 154.415C295.869 154.485 295.869 154.598 295.842 154.684L295.777 154.877C295.749 154.96 295.717 155.041 295.68 155.119C295.658 155.178 295.633 155.236 295.604 155.291L295.486 155.512L295.394 155.657C295.346 155.727 295.292 155.792 295.243 155.856C295.194 155.921 295.178 155.937 295.141 155.974C295.103 156.012 295.017 156.098 294.952 156.157L294.86 156.243C294.761 156.323 294.656 156.397 294.547 156.464L307.945 148.698C308.054 148.634 308.159 148.562 308.258 148.483L308.355 148.391C308.421 148.336 308.485 148.277 308.543 148.214L308.641 148.09C308.694 148.025 308.743 147.961 308.792 147.891C308.84 147.821 308.851 147.794 308.883 147.746C308.916 147.697 308.964 147.601 309.002 147.525L309.083 147.353C309.118 147.274 309.148 147.193 309.174 147.111C309.201 147.047 309.218 146.987 309.239 146.923C309.261 146.858 309.288 146.74 309.309 146.649C309.331 146.557 309.342 146.514 309.353 146.444C309.363 146.374 309.385 146.24 309.401 146.132C309.417 146.025 309.401 145.998 309.401 145.923C309.401 145.847 309.401 145.879 309.401 145.858C309.401 145.734 309.401 145.6 309.401 145.471V145.401V138.027L315.177 134.703C315.315 134.622 315.457 134.548 315.604 134.483H315.641C315.776 134.424 315.906 134.37 316.035 134.327H316.1C316.22 134.286 316.342 134.252 316.467 134.225H316.553C316.646 134.206 316.739 134.191 316.833 134.182H316.952H317.351H317.481C317.591 134.198 317.701 134.219 317.81 134.246L317.934 134.284C318.069 134.328 318.199 134.386 318.322 134.456L183.511 56.7942ZM138.092 221.17L138.033 221.132C137.979 221.094 30.2214 159.019 30.2214 159.019L182.157 71.5468L290.076 133.671L138.092 221.17Z" fill="#D6D609"/>
<path d="M318.968 137.21C318.968 134.408 316.973 133.284 314.535 134.687L139.245 235.605C138.77 235.891 138.328 236.23 137.929 236.616L120.514 226.849L5.21099 160.46C2.35782 158.846 0.0385966 160.137 0.0332031 163.402V165.623V169.581V173.54C0.0332031 173.739 0.033213 173.938 0.0601806 174.142V177.439V177.525C0.0601806 177.616 0.0601806 177.702 0.0601806 177.783C0.0575213 177.824 0.0575213 177.866 0.0601806 177.907C0.0575289 177.928 0.0575289 177.95 0.0601806 177.971C0.0575289 177.993 0.0575289 178.014 0.0601806 178.036L0.0925405 178.283C0.0925405 178.31 0.0925405 178.342 0.0925405 178.369C0.0903338 178.393 0.0903338 178.416 0.0925405 178.439V178.525C0.114115 178.611 0.135686 178.692 0.15726 178.767V178.805C0.155033 178.825 0.155033 178.844 0.15726 178.864L0.2058 179.015C0.2058 179.063 0.248957 179.106 0.265137 179.155L0.297497 179.224C0.297497 179.224 0.297497 179.251 0.297497 179.262C0.339261 179.356 0.389823 179.446 0.448515 179.531C0.516589 179.637 0.592289 179.737 0.675034 179.832C0.72135 179.885 0.771855 179.933 0.826052 179.977L0.923148 180.074C1.0128 180.147 1.10842 180.211 1.209 180.268L14.6065 188.034C14.5076 187.976 14.4137 187.909 14.326 187.835C14.2894 187.807 14.2551 187.777 14.2236 187.744L108.761 241.919C108.9 242.057 109.058 242.174 109.231 242.268L112.159 243.882L132.04 254.724C133.895 255.739 135.979 256.264 138.094 256.249C140.21 256.233 142.286 255.679 144.127 254.638L147.066 252.987C147.395 252.867 147.715 252.722 148.021 252.551L158.473 246.512L187.89 229.576L223.73 208.939L260.082 188.013L291.041 170.189L310.684 158.895L314.594 156.641C317.038 155.238 319.012 151.828 319.006 149.031L318.968 137.21Z" fill="#CEAB17"/>
<path d="M88.923 17.0867L67.1494 29.704L67.0469 67.1205L88.7936 61.3765L88.923 17.0867Z" fill="#0B5107"/>
<path d="M88.9554 16.4196C88.9554 16.2206 89.0039 16.0323 89.0363 15.8495C89.0363 15.7957 89.0363 15.7419 89.0794 15.6881C89.1036 15.5665 89.1342 15.4462 89.1711 15.3278L89.2358 15.1449C89.2671 15.0457 89.3049 14.9487 89.3491 14.8545C89.3746 14.7938 89.4034 14.7346 89.4354 14.677C89.4786 14.591 89.5217 14.5049 89.5702 14.4243C89.6013 14.3703 89.6355 14.3182 89.6727 14.2683C89.7267 14.193 89.7806 14.1177 89.8399 14.0478C89.8992 13.9779 89.91 13.9563 89.9478 13.9187C89.9855 13.881 90.088 13.7789 90.1581 13.7143L90.266 13.6175C90.3753 13.529 90.4907 13.4481 90.6112 13.3755L68.8429 26.0036C68.7195 26.0743 68.6022 26.1553 68.4924 26.2456C68.46 26.2725 68.4276 26.3102 68.3899 26.3371C68.3521 26.364 68.2442 26.4715 68.1795 26.5414L68.0717 26.6705C68.0123 26.7458 67.953 26.8157 67.8991 26.8964L67.802 27.0524C67.7509 27.1342 67.7041 27.2186 67.6618 27.3052L67.5809 27.4772C67.5377 27.5741 67.4999 27.6709 67.4622 27.7677C67.4244 27.8645 67.419 27.8914 67.4029 27.9505C67.3867 28.0097 67.3327 28.1926 67.3058 28.3163C67.2788 28.44 67.2788 28.4185 67.268 28.4776C67.2357 28.6551 67.2033 28.8433 67.1871 29.0423C67.1846 29.0529 67.1846 29.064 67.1871 29.0746C67.1871 29.2144 67.1871 29.3543 67.1602 29.5049V29.7039L88.9284 17.0865C88.9282 16.8763 88.939 16.6663 88.9608 16.4572L88.9554 16.4196Z" fill="#0B5107"/>
<path d="M69.2691 12.7571H69.3122C69.6376 12.6907 69.9675 12.6493 70.2992 12.6334C70.6476 12.6094 70.9972 12.6094 71.3456 12.6334H71.3941C71.7567 12.6646 72.117 12.7185 72.4728 12.7948H72.5268C72.9026 12.8783 73.2735 12.9825 73.6378 13.1067H73.7026C74.0801 13.2358 74.463 13.3864 74.8514 13.5638L74.9377 13.6069C75.3314 13.7897 75.7305 13.9941 76.135 14.2254L97.9087 1.60802L97.6498 1.4628C97.4448 1.34985 97.2399 1.24767 97.0403 1.14548L96.7113 0.989508L96.6196 0.946489L96.5226 0.903454L96.0317 0.693711L95.5949 0.53237L95.4762 0.489335H95.4061L95.1742 0.414048L94.7804 0.295726L94.4083 0.204289H94.3004H94.2411L94.0415 0.16127L93.6963 0.102101L93.3565 0.059082H93.1732H93.1246H93.0275H92.7093H92.0837H91.7816L91.485 0.0967173C91.3853 0.107603 91.2863 0.123775 91.1883 0.145136H91.0967H91.0589L90.8971 0.177404L90.6059 0.252691L90.3146 0.344128L90.1636 0.403281H90.1204L90.0287 0.435549L89.7375 0.559255L89.4516 0.704462L89.2737 0.80665L67.5 13.4186C67.7714 13.2627 68.0545 13.1278 68.3468 13.0153H68.3899C68.6763 12.9081 68.9701 12.8218 69.2691 12.7571Z" fill="#198C15"/>
<path d="M215.85 209.466C215.85 209.56 215.841 209.654 215.823 209.746C215.826 209.787 215.826 209.829 215.823 209.87C215.809 209.928 215.791 209.986 215.769 210.042C215.769 210.074 215.769 210.112 215.726 210.139C215.7 210.19 215.669 210.238 215.634 210.284L215.586 210.349C215.533 210.409 215.471 210.462 215.402 210.504L237.171 197.887C237.24 197.848 237.302 197.797 237.354 197.737L237.403 197.672C237.438 197.626 237.47 197.577 237.5 197.527L237.537 197.425C237.561 197.371 237.579 197.315 237.591 197.258C237.591 197.215 237.591 197.177 237.591 197.134C237.589 197.102 237.589 197.07 237.591 197.037C237.594 196.994 237.594 196.951 237.591 196.908V196.854L215.85 209.466Z" fill="#198C15"/>
<path d="M216.135 108.818L237.904 96.2061L237.618 196.855L215.85 209.472L216.135 108.818Z" fill="#198C15"/>
<path d="M97.8933 1.66187L76.125 14.2739L204.032 87.9128L225.801 75.2954L97.8933 1.66187Z" fill="#198C15"/>
<path d="M206.427 89.5693L206.658 89.7629C206.939 89.9941 207.198 90.2362 207.489 90.4889L207.829 90.8062C208.072 91.0375 208.309 91.2795 208.546 91.5216C208.649 91.6291 208.757 91.7367 208.859 91.8496C209.15 92.1669 209.442 92.4896 209.722 92.8231C209.754 92.8607 209.792 92.8984 209.824 92.9414C210.141 93.3251 210.448 93.7177 210.747 94.1192L210.844 94.2483C211.151 94.6678 211.448 95.0927 211.734 95.5283C212.02 95.9694 212.273 96.4158 212.564 96.8729L212.613 96.959C212.872 97.4054 213.115 97.8625 213.352 98.3197L213.384 98.3896C213.622 98.8575 213.848 99.3362 214.058 99.8094V99.8471C214.269 100.331 214.468 100.821 214.646 101.31C214.648 101.326 214.648 101.342 214.646 101.358C214.824 101.837 214.986 102.321 215.132 102.805C215.129 102.827 215.129 102.848 215.132 102.87C215.276 103.354 215.405 103.838 215.52 104.322C215.518 104.34 215.518 104.358 215.52 104.376C215.633 104.86 215.725 105.338 215.801 105.822C215.803 105.844 215.803 105.865 215.801 105.887C215.876 106.355 215.935 106.823 215.973 107.291C215.973 107.328 215.973 107.371 215.973 107.409C216.011 107.882 216.027 108.345 216.027 108.807L237.801 96.1899C237.801 96.0608 237.801 95.9371 237.801 95.808C237.801 95.5714 237.801 95.3347 237.768 95.0927C237.768 94.9959 237.768 94.8937 237.768 94.7969C237.771 94.7557 237.771 94.7144 237.768 94.6732C237.768 94.614 237.768 94.5495 237.768 94.485C237.768 94.286 237.725 94.087 237.698 93.888C237.671 93.689 237.65 93.533 237.623 93.3502C237.625 93.3233 237.625 93.2963 237.623 93.2695C237.62 93.2481 237.62 93.2264 237.623 93.205L237.558 92.8231L237.461 92.3175C237.429 92.1562 237.391 91.9949 237.353 91.8281V91.7582C237.353 91.7582 237.353 91.7259 237.353 91.7098C237.326 91.5861 237.294 91.4678 237.267 91.3441C237.24 91.2204 237.186 91.0375 237.143 90.8816C237.1 90.7256 237.056 90.575 237.013 90.419L236.965 90.2577V90.1931C236.965 90.1125 236.922 90.0372 236.895 89.9619C236.868 89.8866 236.803 89.6607 236.749 89.5101C236.695 89.3595 236.646 89.2143 236.598 89.0637L236.479 88.741V88.6926L236.447 88.6173C236.393 88.4667 236.334 88.3161 236.28 88.1709C236.226 88.0257 236.161 87.8697 236.096 87.7245C236.032 87.5793 235.972 87.4233 235.908 87.2728C235.906 87.2585 235.906 87.244 235.908 87.2297V87.1974C235.854 87.0738 235.8 86.95 235.74 86.8263C235.681 86.7027 235.6 86.5198 235.53 86.3692L235.303 85.9067L235.239 85.7722L235.201 85.7077L235.072 85.4441L234.813 84.9601C234.721 84.7987 234.635 84.6374 234.543 84.4814L234.462 84.3416L234.414 84.2609C234.36 84.1641 234.306 84.0673 234.246 83.9759C234.187 83.8845 234.041 83.6317 233.934 83.4381C233.826 83.2444 233.707 83.0777 233.588 82.9002C233.47 82.7174 233.351 82.5345 233.227 82.3624C233.103 82.1903 232.941 81.9537 232.795 81.7547L232.704 81.6256L232.601 81.4965L232.315 81.1093C232.111 80.8511 231.906 80.5715 231.695 80.3402C231.663 80.3025 231.625 80.2649 231.593 80.2219C231.361 79.9476 231.129 79.684 230.886 79.4151C230.838 79.356 230.784 79.3076 230.73 79.2484L230.417 78.9257C230.185 78.6783 229.942 78.4417 229.7 78.2104L229.36 77.8877C229.09 77.6403 228.82 77.3983 228.529 77.1616L228.297 76.968C227.968 76.7045 227.634 76.4302 227.299 76.2097L227.208 76.1452L226.944 75.9731C226.749 75.844 226.561 75.7095 226.366 75.5912L225.897 75.3115L204.129 87.9289C204.479 88.1279 204.83 88.3538 205.17 88.5904L205.434 88.7625C205.709 89.0045 206.071 89.2788 206.427 89.5693Z" fill="#198C15"/>
<path d="M204.033 87.9126L76.1259 14.2737C69.4218 10.4121 63.9635 13.5154 63.942 21.1955L63.8125 67.9862L67.0486 67.1311L67.1565 29.7093C67.1565 26.0359 69.7724 24.5623 72.9761 26.407L207.108 103.617C210.311 105.462 212.9 109.904 212.9 113.599L212.631 207.605C212.663 208.164 212.826 208.707 213.107 209.191C213.388 209.674 213.779 210.086 214.249 210.391C215.144 210.902 215.867 210.494 215.867 209.466L216.136 108.829C216.136 101.132 210.743 91.7688 204.033 87.9126Z" fill="#198C15"/>
</g>
<defs>
<clipPath id="clip0_538_5379">
<rect width="319" height="365" fill="white"/>
</clipPath>
</defs>
</svg>
