<svg width="14" height="12" viewBox="0 0 14 12" fill="none" xmlns="http://www.w3.org/2000/svg">
<path d="M7 2.40562C6.69629 1.81162 6.20177 1.33692 5.59585 1.05773C4.98994 0.778545 4.30778 0.711074 3.65891 0.866153C3.01005 1.02123 2.43212 1.38986 2.01792 1.91286C1.60373 2.43585 1.3773 3.08286 1.375 3.75C1.375 5.96062 3.99625 8.25 7 11.2144C9.97562 8.25 12.625 6 12.625 3.75C12.6227 3.08286 12.3963 2.43585 11.9821 1.91286C11.5679 1.38986 10.99 1.02123 10.3411 0.866153C9.69222 0.711074 9.01006 0.778545 8.40415 1.05773C7.79823 1.33692 7.30371 1.81162 7 2.40562V2.40562Z" stroke="#0C9B18" stroke-width="1.5" stroke-linecap="round" stroke-linejoin="round"/>
</svg>
